Coordinates
version=1
nRows=8
nColumns=42
inDegrees=yes

Units are S.I. units (second, meters, Newtons, ...)
If the header above contains a line with 'inDegrees', this indicates whether rotational values are in degrees (yes) or radians (no).

endheader
time	pelvis_tilt	pelvis_list	pelvis_rotation	pelvis_tx	pelvis_ty	pelvis_tz	hip_flexion_r	hip_adduction_r	hip_rotation_r	knee_angle_r	knee_adduction_r	knee_angle_r_beta	ankle_angle_r	subtalar_angle_r	mtp_angle_r	hip_flexion_l	hip_adduction_l	hip_rotation_l	knee_angle_l	knee_adduction_l	knee_angle_l_beta	ankle_angle_l	subtalar_angle_l	mtp_angle_l	lumbar_extension	lumbar_bending	lumbar_rotation	arm_flex_r	arm_add_r	arm_rot_r	elbow_flex_r	pro_sup_r	wrist_flex_r	wrist_dev_r	arm_flex_l	arm_add_l	arm_rot_l	elbow_flex_l	pro_sup_l	wrist_flex_l	wrist_dev_l
      0.40000000	     12.37039393	      2.89969337	      4.19365679	     -0.64559390	      0.92347527	     -0.22354764	    -25.90507051	      6.86177040	    -24.42178954	      1.27517669	     -1.95800707	      0.02225603	     22.02539967	     16.62607020	     -8.93975519	     16.99383393	      5.37038803	    -33.63162512	     16.41757654	     -9.40311269	      0.28654077	     16.89277360	     36.89403262	     -8.93975519	    -43.12350770	      0.03819736	      0.46789211	      4.55201871	    -12.31720770	      5.56565727	     41.20954697	     90.00000001	      0.00000000	      0.00000000	     -4.89727187	    -10.07148668	     16.73906794	     46.16541609	     90.00000001	      0.00000000	      0.00000000
      0.41000000	     12.46437218	      2.73066347	      4.11398062	     -0.63858690	      0.92184409	     -0.22385770	    -26.58653467	      7.00394800	    -24.46751308	      1.18973464	     -1.89812374	      0.02076479	     22.19598863	     16.68223785	     -8.93552507	     17.02074120	      5.41935660	    -33.44868503	     16.66865302	     -9.68189540	      0.29092288	     16.89281568	     36.88634811	     -8.93552507	    -43.11757207	     -0.00515378	      0.57183414	      4.39257748	    -12.26419652	      5.61031645	     41.06476187	     90.00000001	      0.00000000	      0.00000000	     -4.92343787	    -10.04789547	     16.75213865	     46.08289579	     90.00000001	      0.00000000	      0.00000000
      0.42000000	     12.55572754	      2.58431083	      3.99087228	     -0.63138728	      0.92023120	     -0.22415395	    -27.24680256	      7.09027964	    -24.42124594	      1.16821719	     -1.83767990	      0.02038924	     22.38239103	     16.77726097	     -8.93066005	     17.03029870	      5.47375944	    -33.10502523	     17.10333930	     -9.97412939	      0.29850958	     16.82199360	     36.75986142	     -8.93066005	    -43.09254823	     -0.10153459	      0.68187708	      4.20240155	    -12.19876426	      5.66682864	     40.90939496	     90.00000001	      0.00000000	      0.00000000	     -4.98460823	    -10.04515544	     16.75431044	     45.98596900	     90.00000001	      0.00000000	      0.00000000
      0.43000000	     12.54701389	      2.37419353	      3.94521961	     -0.62415810	      0.91841437	     -0.22464035	    -27.83174884	      7.21092631	    -24.21087352	      1.10687117	     -1.65884093	      0.01931855	     22.78327900	     17.10172636	     -8.91203722	     17.29603764	      5.37835014	    -32.57048261	     18.06452289	    -10.22652124	      0.31528540	     16.55928564	     35.97460559	     -8.91203722	    -42.93914993	     -0.08681228	      0.68300747	      4.07221923	    -12.11801171	      5.79522200	     40.68594329	     90.00000001	      0.00000000	      0.00000000	     -5.07628346	    -10.02346247	     16.76953292	     45.81815072	     90.00000001	      0.00000000	      0.00000000
      0.44000000	     12.61162251	      2.26372385	      3.68359679	     -0.61668014	      0.91695549	     -0.22478314	    -28.31307909	      7.22626363	    -24.12395939	      1.32737282	     -1.82557033	      0.02316703	     22.88625983	     17.13785206	     -8.90603308	     17.22868958	      5.47504288	    -32.05276271	     18.56333103	    -10.58744495	      0.32399125	     16.35288821	     35.71153243	     -8.90603308	    -42.86532149	     -0.31059682	      0.88930985	      3.84882019	    -12.04943824	      5.84601920	     40.53534540	     90.00000001	      0.00000000	      0.00000000	     -5.14486389	    -10.00731090	     16.75146273	     45.73414365	     90.00000001	      0.00000000	      0.00000000
      0.45000000	     12.56607053	      2.09134313	      3.57532583	     -0.60943386	      0.91541850	     -0.22519823	    -28.73080226	      7.33572197	    -23.69559966	      1.41178425	     -1.87331144	      0.02464028	     23.42426151	     17.34992789	     -8.88112559	     17.52141231	      5.38955777	    -31.17860449	     19.77957988	    -10.79704419	      0.34521879	     15.31737280	     33.89294917	     -8.88112559	    -42.70852243	     -0.38634927	      0.93065187	      3.77682956	    -11.93153987	      5.97263742	     40.17703811	     90.00000001	      0.00000000	      0.00000000	     -5.15689665	     -9.96302609	     16.73339534	     45.42712198	     90.00000001	      0.00000000	      0.00000000
      0.46000000	     12.50305026	      2.01795548	      3.41767123	     -0.60228428	      0.91423945	     -0.22565991	    -28.98697151	      7.40394903	    -23.20270072	      1.67790969	     -2.22205318	      0.02928505	     23.48435678	     17.10574217	     -8.80868950	     17.42374438	      5.78776508	    -28.83407563	     20.28316173	    -10.81113588	      0.35400795	     14.53444824	     30.15887685	     -8.80868950	    -42.57862086	     -0.58281598	      0.96792244	      3.70314114	    -11.78796943	      5.97859188	     39.84341236	     90.00000001	      0.00000000	      0.00000000	     -5.15592478	     -9.91572097	     16.63619949	     45.18697914	     90.00000001	      0.00000000	      0.00000000
      0.47000000	     12.54660815	      2.01103966	      3.09863462	     -0.59472625	      0.91336201	     -0.22593824	    -29.24766447	      7.23437919	    -22.89911680	      2.26589520	     -2.48141295	      0.03954733	     23.54034204	     17.05602797	     -8.79975690	     17.32527163	      5.94760208	    -28.20088198	     20.95910057	    -11.13913404	      0.36580531	     14.04639152	     29.79476980	     -8.79975690	    -42.53209239	     -0.93427664	      1.12615661	      3.50440825	    -11.70377228	      6.01170969	     39.69583083	     90.00000001	      0.00000000	      0.00000000	     -5.18123377	     -9.90746022	     16.62213719	     45.07703315	     90.00000001	      0.00000000	      0.00000000
